<svg xmlns="http://www.w3.org/2000/svg" viewBox="0 0 16.42 20.52"><defs><style>.cls-1{fill:#231f20;}</style></defs><title>cart</title><g id="Слой_2" data-name="Слой 2"><g id="Слой_1-2" data-name="Слой 1"><path class="cls-1" d="M4.1,5.55c0-.54,0-1,0-1.56a4.1,4.1,0,0,1,8.14-.61,10.52,10.52,0,0,1,.07,1.42c0,.24,0,.48,0,.74h2.38a.71.71,0,0,1,.76.71q.18,2.54.36,5.07t.39,5.33q.1,1.42.2,2.85a1.82,1.82,0,0,1,0,.44.72.72,0,0,1-.76.56H.82A.72.72,0,0,1,0,19.69c0-.85.12-1.7.18-2.55L.36,14.6l.23-3.15Q.68,10.21.76,9C.83,8,.89,7.11,1,6.18a.7.7,0,0,1,.7-.62H4.1ZM5.55,7v.23q0,1.31,0,2.62a.72.72,0,1,1-1.45,0c0-.88,0-1.76,0-2.64V7H2.36l-.86,12h13.4L14,7H12.31v.23q0,1.31,0,2.62a.72.72,0,1,1-1.45,0c0-.88,0-1.76,0-2.64V7Zm0-1.47h5.32a17.48,17.48,0,0,0,0-1.77,2.63,2.63,0,0,0-5.18-.26,16.28,16.28,0,0,0-.13,2"/></g></g></svg>