<svg xmlns="http://www.w3.org/2000/svg" viewBox="0 0 17 11.79"><defs><style>.cls-1{fill:#010101;}.cls-2{fill:none;stroke:#010101;stroke-miterlimit:10;}</style></defs><title>garanty</title><g id="Слой_2" data-name="Слой 2"><g id="Layer_1" data-name="Layer 1"><path class="cls-1" d="M13.41,9.71a.17.17,0,0,1-.12,0l-.57-.28-.57.28a.26.26,0,0,1-.36-.12L11.49,9l-.59-.09a.25.25,0,0,1-.21-.3L10.78,8l-.44-.44a.26.26,0,0,1,0-.37l.44-.44-.09-.62a.26.26,0,0,1,.21-.3l.62-.11.3-.55A.29.29,0,0,1,12.18,5l.57.28L13.32,5a.26.26,0,0,1,.36.12l.3.55.62.11a.25.25,0,0,1,.21.3l-.09.62.44.44a.26.26,0,0,1,0,.37L14.72,8l.09.62a.26.26,0,0,1-.21.3L14,9l-.3.55A.29.29,0,0,1,13.41,9.71Zm-.68-.87a.33.33,0,0,1,.12,0l.44.21.23-.44a.28.28,0,0,1,.2-.14l.5-.09-.07-.5a.28.28,0,0,1,.07-.23l.36-.36L14.23,7a.26.26,0,0,1-.07-.23l.07-.5-.5-.09a.28.28,0,0,1-.2-.14l-.23-.44-.44.21a.26.26,0,0,1-.23,0l-.44-.21L12,6a.28.28,0,0,1-.2.14l-.5.09.07.5a.28.28,0,0,1-.07.23l-.36.36.36.36a.26.26,0,0,1,.07.23l-.07.5.5.09a.28.28,0,0,1,.2.14l.23.44.44-.21A.19.19,0,0,1,12.73,8.84Z"/><path class="cls-2" d="M16,11.29H1a.53.53,0,0,1-.53-.53V1A.53.53,0,0,1,1,.5H16A.53.53,0,0,1,16.5,1v9.73A.53.53,0,0,1,16,11.29Z"/><path class="cls-1" d="M14.94,3.1H2.37a.27.27,0,0,1,0-.53H14.94a.27.27,0,0,1,0,.53Z"/><path class="cls-1" d="M7.77,6.15H2.37a.27.27,0,0,1,0-.53H7.77a.27.27,0,0,1,0,.53Z"/><path class="cls-1" d="M7.77,8.95H2.37a.27.27,0,0,1,0-.53H7.77a.27.27,0,0,1,0,.53Z"/></g></g></svg>