<svg xmlns="http://www.w3.org/2000/svg" viewBox="0 0 22.33 22.34"><defs><style>.cls-1{opacity:0.5;}</style></defs><title>google</title><g id="Слой_2" data-name="Слой 2"><g id="Layer_5" data-name="Layer 5"><g class="cls-1"><path d="M11.17,0h4.56a6.37,6.37,0,0,1,3,.67,6.44,6.44,0,0,1,3.42,4.19,6.36,6.36,0,0,1,.21,1.69c0,3.08,0,6.15,0,9.22a6.34,6.34,0,0,1-3.21,5.65,6.05,6.05,0,0,1-3.19.9c-3.17,0-6.34,0-9.51,0a6.47,6.47,0,0,1-6.24-5A7.07,7.07,0,0,1,0,15.71c0-3,0-6.07,0-9.1A6.44,6.44,0,0,1,1,3.09,6.4,6.4,0,0,1,5.19.14,7.13,7.13,0,0,1,6.6,0C8.13,0,9.65,0,11.17,0Zm-2,12.29c-.06,0-.07.07-.09.07l-.25,0a8.81,8.81,0,0,0-2.2.43,3.46,3.46,0,0,0-1.49.93,2.06,2.06,0,0,0,.34,3.17,3.82,3.82,0,0,0,1.14.53,6.15,6.15,0,0,0,3.13.05A4.42,4.42,0,0,0,12,16.32a2.55,2.55,0,0,0,0-3.71c-.24-.25-.53-.45-.79-.68s-.44-.33-.64-.52a.75.75,0,0,1-.09-1.1,6.6,6.6,0,0,1,.51-.56c.24-.26.51-.51.73-.79a2.23,2.23,0,0,0,.47-1.9,2.69,2.69,0,0,0-.83-1.53A.61.61,0,0,1,11,5.1a2.14,2.14,0,0,0,1.89-.53c-.37,0-.71-.05-1,0-.84,0-1.69,0-2.53.06A7.42,7.42,0,0,0,8,4.76,3.21,3.21,0,0,0,5.56,7,2.61,2.61,0,0,0,8,10.44a1.85,1.85,0,0,1,.79.1C8.43,11.22,8.82,11.75,9.17,12.3Zm8.54-2.07c-.62,0-1.21,0-1.82,0V8.4h-.46c0,.31,0,.6,0,.89a7.1,7.1,0,0,1,0,.94H13.6v.43h1.56c.24,0,.26,0,.26.25,0,.41,0,.82,0,1.23a2.06,2.06,0,0,0,0,.23h.43c0-.3,0-.57,0-.85a3.71,3.71,0,0,1,0-.88h1.78Z"/><path d="M9.06,17A3.52,3.52,0,0,1,7,16.46a2.76,2.76,0,0,1-.66-.62,1.55,1.55,0,0,1,.13-2.06A2.89,2.89,0,0,1,8,13a9.27,9.27,0,0,1,1.19-.17,1.3,1.3,0,0,1,1,.33c.2.18.44.33.65.51a2.06,2.06,0,0,1,.8,1.36,1.52,1.52,0,0,1-.43,1.27A2.66,2.66,0,0,1,9.47,17,4,4,0,0,1,9.06,17Z"/><path d="M10.72,8.14a5.78,5.78,0,0,1-.13.79,1.55,1.55,0,0,1-2.32.9A2.09,2.09,0,0,1,8,9.63,3.46,3.46,0,0,1,7,6.25,1.55,1.55,0,0,1,9.54,5.5a3.29,3.29,0,0,1,1.05,1.8C10.66,7.56,10.67,7.84,10.72,8.14Z"/></g></g></g></svg>