<svg xmlns="http://www.w3.org/2000/svg" viewBox="0 0 17.75 16.16"><defs><style>.cls-1{fill:#515251;}</style></defs><title>heart_empty</title><g id="Слой_2" data-name="Слой 2"><g id="Layer_4" data-name="Layer 4"><path class="cls-1" d="M12.76,1h0a4.05,4.05,0,0,1,2.17.64,3.65,3.65,0,0,1,1.79,3,4.91,4.91,0,0,1-1.56,4.1q-2.36,2.38-4.74,4.74L8.87,15,7.79,13.9,2.55,8.66A5,5,0,0,1,1,5.52,3.91,3.91,0,0,1,4.22,1.09,4.86,4.86,0,0,1,5.09,1a4.91,4.91,0,0,1,3,1.07l.09.07.07.05a1.07,1.07,0,0,0,.32.17h0a.93.93,0,0,0,.28,0,1,1,0,0,0,.7-.29l.31-.18a7.73,7.73,0,0,1,1-.52,5.07,5.07,0,0,1,2-.43m0-1a6,6,0,0,0-2.35.51,15.72,15.72,0,0,0-1.56.87l0,0h0l-.18-.14A5.94,5.94,0,0,0,5.09,0,5.84,5.84,0,0,0,4,.11,4.91,4.91,0,0,0,0,5.62,6,6,0,0,0,1.84,9.36l6.57,6.57a.58.58,0,0,0,.93,0q3.27-3.26,6.53-6.53a5.92,5.92,0,0,0,1.85-4.9A4.66,4.66,0,0,0,15.46.79,5.07,5.07,0,0,0,12.76,0Z"/></g></g></svg>