<svg xmlns="http://www.w3.org/2000/svg" viewBox="0 0 22.34 22.34"><defs><style>.cls-1{opacity:0.5;}.cls-2{fill:#fff;}</style></defs><title>insta</title><g id="Слой_2" data-name="Слой 2"><g id="Layer_5" data-name="Layer 5"><g class="cls-1"><path d="M22.34,11.16c0,1.52,0,3,0,4.57a6.35,6.35,0,0,1-.6,2.82,6.43,6.43,0,0,1-4.49,3.62,6.85,6.85,0,0,1-1.6.17H6.58a6.39,6.39,0,0,1-5-2.25A6.13,6.13,0,0,1,.06,16.51C0,16.16,0,15.8,0,15.44Q0,11,0,6.66A6.53,6.53,0,0,1,1.08,2.94,6.42,6.42,0,0,1,5.18.14,6.81,6.81,0,0,1,6.6,0h9.13a6.53,6.53,0,0,1,6.41,4.87,6.86,6.86,0,0,1,.21,1.76Q22.34,8.89,22.34,11.16Zm-3.77,0h0c0-.63,0-1.27,0-1.9a11.36,11.36,0,0,0-.22-2.49,3.8,3.8,0,0,0-3.19-2.91,19,19,0,0,0-2.24-.16q-1.81,0-3.61,0A15.45,15.45,0,0,0,7,3.88,3.74,3.74,0,0,0,3.84,6.76,8.74,8.74,0,0,0,3.61,9q0,2.19,0,4.38a8.74,8.74,0,0,0,.22,2.23A3.74,3.74,0,0,0,7,18.48a15.44,15.44,0,0,0,2.24.17q1.81,0,3.61,0a16.89,16.89,0,0,0,2.21-.16,3.86,3.86,0,0,0,3.36-3.76C18.53,13.55,18.53,12.37,18.57,11.19Z"/><path class="cls-2" d="M18.57,11.19c0,1.18,0,2.37-.12,3.55a3.86,3.86,0,0,1-3.36,3.76,16.89,16.89,0,0,1-2.21.16q-1.81,0-3.61,0A15.44,15.44,0,0,1,7,18.48,3.74,3.74,0,0,1,3.84,15.6a8.74,8.74,0,0,1-.22-2.23q0-2.19,0-4.38a8.74,8.74,0,0,1,.22-2.23A3.74,3.74,0,0,1,7,3.88a15.45,15.45,0,0,1,2.24-.17q1.81,0,3.61,0a19,19,0,0,1,2.24.16A3.8,3.8,0,0,1,18.31,6.8a11.36,11.36,0,0,1,.22,2.49c0,.63,0,1.27,0,1.9Zm-13.65,0h0c0,.62,0,1.25,0,1.87A17.72,17.72,0,0,0,5,14.9a2.53,2.53,0,0,0,1.72,2.2,4.11,4.11,0,0,0,1.4.24q2.42,0,4.85,0a15,15,0,0,0,1.74-.08A2.55,2.55,0,0,0,17,15.38a4.91,4.91,0,0,0,.19-1.31q0-2.88,0-5.77A5.26,5.26,0,0,0,17,7.09a2.47,2.47,0,0,0-1.62-1.81A4.16,4.16,0,0,0,14,5c-2,0-3.91,0-5.86,0a4.88,4.88,0,0,0-1.19.17,2.48,2.48,0,0,0-1.81,1.7,4.77,4.77,0,0,0-.22,1.5C4.91,9.32,4.92,10.24,4.92,11.16Z"/><path d="M4.92,11.16c0-.92,0-1.84,0-2.76a4.77,4.77,0,0,1,.22-1.5,2.48,2.48,0,0,1,1.81-1.7A4.88,4.88,0,0,1,8.13,5C10.09,5,12,5,14,5a4.16,4.16,0,0,1,1.43.25A2.47,2.47,0,0,1,17,7.09a5.26,5.26,0,0,1,.17,1.22q0,2.88,0,5.77A4.91,4.91,0,0,1,17,15.38a2.55,2.55,0,0,1-2.31,1.87,15,15,0,0,1-1.74.08q-2.42,0-4.85,0a4.11,4.11,0,0,1-1.4-.24A2.53,2.53,0,0,1,5,14.9,17.72,17.72,0,0,1,4.9,13c0-.62,0-1.25,0-1.87ZM11.07,15a3.81,3.81,0,1,0-3.82-3.83A3.77,3.77,0,0,0,11.07,15Zm4-7a.84.84,0,0,0,.87-.84.86.86,0,0,0-.86-.88.84.84,0,0,0-.87.86A.82.82,0,0,0,15.06,8Z"/><path d="M8.54,11.18A2.53,2.53,0,1,1,11,13.72,2.54,2.54,0,0,1,8.54,11.18Z"/></g></g></g></svg>