<svg xmlns="http://www.w3.org/2000/svg" viewBox="0 0 19.46 19.47"><defs><style>.cls-1{fill:#010101;}.cls-2{fill:none;stroke:#000;stroke-miterlimit:10;stroke-width:0.6px;}</style></defs><title>logout</title><g id="Слой_2" data-name="Слой 2"><g id="Слой_1-2" data-name="Слой 1"><path class="cls-1" d="M7.71.3h10a1.48,1.48,0,0,1,1.48,1.48v15.9a1.48,1.48,0,0,1-1.48,1.48h-10a1.48,1.48,0,0,1-1.48-1.48V14.83a.38.38,0,0,1,.75,0v2.86a.73.73,0,0,0,.73.73h10a.73.73,0,0,0,.73-.73V1.78a.73.73,0,0,0-.73-.73h-10A.73.73,0,0,0,7,1.78V4.87a.38.38,0,0,1-.75,0V1.78A1.48,1.48,0,0,1,7.71.3"/><path class="cls-2" d="M7.71.3h10a1.48,1.48,0,0,1,1.48,1.48v15.9a1.48,1.48,0,0,1-1.48,1.48h-10a1.48,1.48,0,0,1-1.48-1.48V14.83a.38.38,0,0,1,.75,0v2.86a.73.73,0,0,0,.73.73h10a.73.73,0,0,0,.73-.73V1.78a.73.73,0,0,0-.73-.73h-10A.73.73,0,0,0,7,1.78V4.87a.38.38,0,0,1-.75,0V1.78A1.48,1.48,0,0,1,7.71.3Z"/><path class="cls-1" d="M.68,9.36H12.75a.38.38,0,1,1,0,.75H.68a.38.38,0,0,1,0-.75"/><path class="cls-2" d="M.68,9.36H12.75a.38.38,0,1,1,0,.76H.68a.38.38,0,0,1,0-.76Z"/><path class="cls-1" d="M13.47,9.37a.38.38,0,0,1,.27.64l-3.18,3.18a.38.38,0,0,1-.53-.53L13.2,9.48a.38.38,0,0,1,.27-.11"/><path class="cls-2" d="M13.47,9.37a.38.38,0,0,1,.27.64l-3.18,3.18a.38.38,0,0,1-.53-.53L13.2,9.48A.38.38,0,0,1,13.47,9.37Z"/><path class="cls-1" d="M10.29,6.16a.38.38,0,0,1,.27.11l3.18,3.18a.38.38,0,0,1-.53.53L10,6.81a.38.38,0,0,1,.27-.64"/><path class="cls-2" d="M10.29,6.16a.38.38,0,0,1,.27.11l3.17,3.18a.38.38,0,0,1-.53.53L10,6.81a.38.38,0,0,1,.27-.64Z"/></g></g></svg>