<svg xmlns="http://www.w3.org/2000/svg" viewBox="0 0 270 59.8"><title>logo</title><g id="Слой_2" data-name="Слой 2"><g id="Слой_1-2" data-name="Слой 1"><g id="L2"><path d="M200.39,1.1V2.63h5V41.41h-5v1.53h31.94s.55-6.07.82-9c.11-1.14.45-4.16.45-4.16H231.9a18.27,18.27,0,0,1-3.82,8,9.16,9.16,0,0,1-6.39,3.44c-2.4.17-7.49.19-7.49.19V2.6h5V1.1Z"/></g><g id="L1"><path d="M164.41,1.1V2.63h5V41.41h-5v1.53h31.94s.54-6.07.82-9c.11-1.14.45-4.16.45-4.16h-1.71a18.27,18.27,0,0,1-3.82,8,9.16,9.16,0,0,1-6.39,3.44c-2.4.17-7.49.19-7.49.19V2.6h5V1.1Z"/></g><g id="O"><path d="M16.76,41.76a8,8,0,0,1-4.89-5.35A25.59,25.59,0,0,1,10.64,29q-.2-5.55-.13-11.11A33.81,33.81,0,0,1,11.75,8c1-3.11,2.85-5.39,6.21-6a11.56,11.56,0,0,1,6.37.34c2.88,1.08,4.34,3.4,5.13,6.22a31.11,31.11,0,0,1,1,7.19c.09,2.11,0,5.17,0,6.34s-.09,6.78-.39,10.15a14.2,14.2,0,0,1-1.78,6.08,7.62,7.62,0,0,1-5.48,3.87,14.53,14.53,0,0,1-2.46.22,10.61,10.61,0,0,1-3.6-.6M19,.07A19.54,19.54,0,0,0,6.42,5.78a22.19,22.19,0,0,0-4.05,5.76C-2.2,20.93-.08,33,8,39.74a18.07,18.07,0,0,0,9.71,4.11,21.43,21.43,0,0,0,9.7-1,18.35,18.35,0,0,0,7-4.48A22.09,22.09,0,0,0,40.6,26.76a25.25,25.25,0,0,0,.14-9C39,7.84,30.58,0,20.47,0Q19.76,0,19,.07"/></g><g id="S"><path d="M55.9.41A12.16,12.16,0,0,0,49.35,4.6a13,13,0,0,0-2.84,10.15c.55,4.36,2.74,7.53,7,9,3.26,1.14,6.57,2.16,9.86,3.24a8.88,8.88,0,0,1,4,2.27,7.47,7.47,0,0,1-.29,10.33C64.22,42.48,60.7,43,57,41.81s-6.16-3.87-7.66-7.42c-.42-1-.72-2-1.08-3.05h-1.6V43h1.62s2-2.64,2.05-2.63l1.23.8a16.39,16.39,0,0,0,11.56,2.71,12.82,12.82,0,0,0,9.43-6.16,14.4,14.4,0,0,0,1.34-12.53,10.51,10.51,0,0,0-6.69-7.06c-2.22-.77-4.48-1.43-6.72-2.16a59.11,59.11,0,0,1-5.78-2c-4.19-1.88-4.28-7.46-1-10.3C56.52,1.13,61.07,1.21,64,2.93a10.7,10.7,0,0,1,4.75,6.45c.3,1,.48,2,.71,2.95H71V1.11H69.45S68,2.62,67.62,3a19.06,19.06,0,0,0-2.51-1.58A12.85,12.85,0,0,0,60.46.06C60,0,59.61,0,59.18,0A13.56,13.56,0,0,0,55.9.41"/></g><g id="K1"><polygon points="79.01 1.1 79.01 2.63 83.97 2.63 83.97 41.41 78.99 41.41 78.99 42.92 97.78 42.92 97.78 41.38 92.83 41.38 92.83 2.6 97.79 2.6 97.79 1.1 79.01 1.1"/></g><g id="K2"><path d="M103.71,1.1V2.61c1.34,0,2.64-.05,3.94,0a2.07,2.07,0,0,1,1.43.55c.38.53-.17,1-.55,1.46Q102.81,10.83,97.08,17l-3.84,4.16,13.84,20.27h-4.88v1.52h18.51V41.42h-3L104.17,21.55l-3.7-5.42c1-1.07,8.48-9,11.26-11.89a4.68,4.68,0,0,1,3.14-1.53c.94-.06,1.87-.1,2.82-.14V1.1Z"/></g><g id="E"><path d="M123.85,1.1V2.66h4.95V41.44h-5v1.5h34.42l.88-13.25h-1.64c-.38,1.34-.71,2.66-1.14,3.94-1.53,4.61-4.5,7.45-9.56,7.62-3,.09-5.94.11-8.92.16a.69.69,0,0,1-.22-.07V22.44c1.28.06,2.53.08,3.78.18a5.08,5.08,0,0,1,5.11,4.6c.2,1.1.31,2.22.46,3.34h1.57v-17H147c-.06.72-.08,1.4-.17,2.08-.27,2.06-1.11,3.79-3.13,4.64a12.33,12.33,0,0,1-5,.65h-1V2.56c3.58.07,7.12,0,10.64.24a7.32,7.32,0,0,1,6.61,4.91c.53,1.28.88,2.64,1.32,4h1.55l-.93-10.6Z"/></g><g id="Y"><path d="M230.58,1.08V2.64h3.93l12.06,21V41.44H241V43h20V41.4h-5.57V23.65s6-12,9-17.74a16.87,16.87,0,0,1,1-1.79,2.87,2.87,0,0,1,2.2-1.38c.79-.06,1.57-.1,2.36-.15V1.13H258V2.64c1.09,0,4,.06,4.48.11a.73.73,0,0,1,.72,1,7.79,7.79,0,0,1-.6,1.7c-2.44,5-7.68,15.5-7.68,15.5L244.58,2.61h5.32V1.08Z"/></g><g id="logo_bottom"><polygon points="1.32 52.56 2.24 52.56 2.24 58.92 5.29 58.92 5.29 59.69 1.32 59.69 1.32 52.56"/><path d="M16,52.56v4.22c0,1.6.71,2.27,1.66,2.27s1.73-.7,1.73-2.27V52.56h.93v4.15c0,2.19-1.15,3.09-2.7,3.09s-2.56-.83-2.56-3v-4.2Z"/><path d="M34.94,59.69,34,58.11c-.37-.6-.6-1-.82-1.41h0c-.2.41-.4.79-.77,1.42l-.86,1.56H30.51l2.18-3.6-2.09-3.52h1.07l.94,1.67c.26.47.46.82.66,1.21h0c.2-.42.38-.75.64-1.21l1-1.67H36L33.79,56,36,59.69Z"/><path d="M47.13,52.56v4.22c0,1.6.71,2.27,1.66,2.27s1.73-.7,1.73-2.27V52.56h.93v4.15c0,2.19-1.15,3.09-2.7,3.09s-2.56-.83-2.56-3v-4.2Z"/><path d="M62.19,52.66A9.58,9.58,0,0,1,64,52.51a2.92,2.92,0,0,1,2.06.58,1.78,1.78,0,0,1,.56,1.35,1.87,1.87,0,0,1-1.34,1.82v0a1.78,1.78,0,0,1,1,1.44,11.21,11.21,0,0,0,.55,2h-1A9.15,9.15,0,0,1,65.4,58c-.21-1-.59-1.35-1.43-1.38h-.87v3.08h-.92Zm.92,3.24h.94c1,0,1.61-.54,1.61-1.35S65,53.23,64,53.22a3.81,3.81,0,0,0-.91.08Z"/><path d="M78.48,59.69v-3l-2.25-4.1h1l1,2c.27.54.49,1,.71,1.47h0c.2-.47.44-.93.72-1.47l1-2h1l-2.39,4.09v3Z"/><path d="M103.13,52.66a9.58,9.58,0,0,1,1.77-.15,2.92,2.92,0,0,1,2.06.58,1.78,1.78,0,0,1,.56,1.35,1.87,1.87,0,0,1-1.34,1.82v0a1.78,1.78,0,0,1,1,1.44,11.21,11.21,0,0,0,.55,2h-1a9.15,9.15,0,0,1-.48-1.7c-.21-1-.59-1.35-1.43-1.38h-.87v3.08h-.92Zm.92,3.24H105c1,0,1.61-.54,1.61-1.35s-.67-1.32-1.64-1.33a3.81,3.81,0,0,0-.91.08Z"/><polygon points="121.64 56.35 118.87 56.35 118.87 58.92 121.96 58.92 121.96 59.69 117.96 59.69 117.96 52.56 121.8 52.56 121.8 53.34 118.87 53.34 118.87 55.59 121.64 55.59 121.64 56.35"/><path d="M132.17,58.57a3.25,3.25,0,0,0,1.65.47c.94,0,1.49-.5,1.49-1.22s-.38-1-1.34-1.42c-1.16-.41-1.88-1-1.88-2a2,2,0,0,1,2.3-1.93,3.22,3.22,0,0,1,1.57.35l-.25.75a2.82,2.82,0,0,0-1.35-.34c-1,0-1.34.58-1.34,1.07,0,.67.43,1,1.42,1.37,1.21.47,1.82,1,1.82,2.09s-.81,2.05-2.49,2.05a3.68,3.68,0,0,1-1.82-.46Z"/><path d="M147.79,57.45l-.74,2.24h-1l2.42-7.12h1.11l2.43,7.12h-1l-.76-2.24Zm2.34-.72-.7-2.05c-.16-.47-.27-.89-.37-1.3h0c-.11.42-.22.86-.36,1.29l-.7,2.06Z"/><polygon points="162.25 52.56 163.16 52.56 163.16 58.92 166.21 58.92 166.21 59.69 162.25 59.69 162.25 52.56"/><polygon points="180.06 56.35 177.29 56.35 177.29 58.92 180.38 58.92 180.38 59.69 176.37 59.69 176.37 52.56 180.22 52.56 180.22 53.34 177.29 53.34 177.29 55.59 180.06 55.59 180.06 56.35"/><path d="M202,58.57a3.26,3.26,0,0,0,1.65.47c.94,0,1.49-.5,1.49-1.22s-.38-1-1.34-1.42c-1.16-.41-1.88-1-1.88-2a2,2,0,0,1,2.3-1.93,3.22,3.22,0,0,1,1.57.35l-.25.75a2.82,2.82,0,0,0-1.35-.34c-1,0-1.34.58-1.34,1.07,0,.67.43,1,1.42,1.37,1.2.47,1.82,1,1.82,2.09s-.81,2.05-2.49,2.05a3.69,3.69,0,0,1-1.82-.46Z"/><polygon points="217.79 53.35 215.62 53.35 215.62 52.56 220.89 52.56 220.89 53.35 218.72 53.35 218.72 59.69 217.79 59.69 217.79 53.35"/><path d="M236.63,56.05c0,2.45-1.49,3.75-3.31,3.75s-3.2-1.46-3.2-3.61,1.41-3.74,3.31-3.74,3.2,1.49,3.2,3.6m-5.53.12c0,1.52.82,2.89,2.27,2.89s2.28-1.34,2.28-3c0-1.42-.74-2.9-2.27-2.9s-2.28,1.41-2.28,3"/><path d="M247,52.66a9.58,9.58,0,0,1,1.77-.15,2.91,2.91,0,0,1,2.06.58,1.77,1.77,0,0,1,.56,1.35A1.87,1.87,0,0,1,250,56.26v0a1.78,1.78,0,0,1,1,1.44,11.33,11.33,0,0,0,.55,2h-1a9.07,9.07,0,0,1-.48-1.7c-.21-1-.59-1.35-1.43-1.38h-.87v3.08H247Zm.92,3.24h.94c1,0,1.61-.54,1.61-1.35s-.67-1.32-1.64-1.33a3.81,3.81,0,0,0-.91.08Z"/><polygon points="265.47 56.35 262.7 56.35 262.7 58.92 265.78 58.92 265.78 59.69 261.78 59.69 261.78 52.56 265.63 52.56 265.63 53.34 262.7 53.34 262.7 55.59 265.47 55.59 265.47 56.35"/></g></g></g></svg>