<svg xmlns="http://www.w3.org/2000/svg" viewBox="0 0 19.47 21.44"><defs><style>.cls-1{fill:#090a0a;}.cls-2{fill:none;stroke:#000;stroke-miterlimit:10;stroke-width:0.5px;}</style></defs><title>notifications</title><g id="Слой_2" data-name="Слой 2"><g id="Слой_1-2" data-name="Слой 1"><path class="cls-1" d="M16.6,18.88H2.87a2.27,2.27,0,1,1,0-4.48H16.6a2.27,2.27,0,1,1,0,4.48M2.87,15.12C2,15.12,1,15.5,1,16.6S2,18.08,2.87,18.08H16.6c.91,0,1.86-.38,1.86-1.48s-.95-1.48-1.86-1.48Z"/><path class="cls-2" d="M16.6,18.88H2.87a2.27,2.27,0,1,1,0-4.48H16.6a2.27,2.27,0,1,1,0,4.48ZM2.87,15.12C2,15.12,1,15.5,1,16.6S2,18.08,2.87,18.08H16.6c.91,0,1.86-.38,1.86-1.48s-.95-1.48-1.86-1.48Z"/><path class="cls-1" d="M9.73,21.19a2.28,2.28,0,0,1-2.28-2.28v-.83H12v.83a2.26,2.26,0,0,1-2.28,2.28M8.22,18.88V19a1.52,1.52,0,0,0,3,0v-.08Z"/><path class="cls-2" d="M9.73,21.19a2.28,2.28,0,0,1-2.28-2.28v-.83H12v.83A2.26,2.26,0,0,1,9.73,21.19ZM8.22,18.88V19a1.52,1.52,0,0,0,3,0v-.08Z"/><path class="cls-1" d="M16.18,15.12H3.29V8.86A6.45,6.45,0,0,1,8,2.64h3.41a6.42,6.42,0,0,1,4.74,6.22ZM4,14.36H15.42V8.86A5.69,5.69,0,0,0,11.29,3.4H8.18A5.69,5.69,0,0,0,4,8.86Z"/><path class="cls-2" d="M16.18,15.12H3.29V8.86A6.45,6.45,0,0,1,8,2.64h3.41a6.42,6.42,0,0,1,4.74,6.22ZM4,14.36H15.42V8.86A5.69,5.69,0,0,0,11.29,3.4H8.18A5.69,5.69,0,0,0,4,8.86Z"/><path class="cls-1" d="M11.71,3.36H7.76V2.53a2,2,0,1,1,3.94,0ZM8.52,2.6h2.43V2.53c0-.72-.3-1.52-1.21-1.52s-1.21.8-1.21,1.52Z"/><path class="cls-2" d="M11.71,3.36H7.76V2.53a2,2,0,1,1,3.94,0ZM8.52,2.6h2.43V2.53c0-.72-.3-1.52-1.21-1.52s-1.21.8-1.21,1.52Z"/></g></g></svg>