<svg xmlns="http://www.w3.org/2000/svg" viewBox="0 0 19.57 13.5"><defs><style>.cls-1{fill:#010101;}.cls-2{fill:none;}</style></defs><title>payment_system</title><g id="Слой_2" data-name="Слой 2"><g id="Layer_1" data-name="Layer 1"><rect class="cls-1" x="5.39" y="2.22" width="2.3" height="0.64"/><rect class="cls-1" x="5.39" y="3.97" width="9.51" height="0.65"/><rect class="cls-1" x="9.29" y="2.17" width="5.61" height="0.65"/><path class="cls-1" d="M18,0H4.9A1.45,1.45,0,0,0,3.36,1.42c0,.28,0,.56,0,.85V3.62h.22l.29,0,.28.05V2.66c0-.14,0-.27,0-.4,0-.28,0-.55,0-.82A.67.67,0,0,1,4.9.8H18c.53,0,.77.25.78.79V9.92c0,.57-.24.81-.81.81H7.87v.8H18a1.48,1.48,0,0,0,1.6-1.61V1.58A1.47,1.47,0,0,0,18,0Z"/><path class="cls-2" d="M5.1,7.6a1.7,1.7,0,0,0-.24-.88,1.74,1.74,0,0,0-2.52-.53,1.68,1.68,0,0,0-.73,1.3c0,.33,0,.66,0,1,0,.14,0,.14.15.14H5c.09,0,.12,0,.12-.13C5.1,8.2,5.1,7.9,5.1,7.6Z"/><path class="cls-2" d="M3.54,9.5a1,1,0,0,0-1,.49.9.9,0,0,0,.18,1.15.67.67,0,0,1,.25.62v.14h0c0,.18,0,.36,0,.53a.53.53,0,0,0,.1.23.4.4,0,0,0,.46.13.44.44,0,0,0,.3-.44c0-.27,0-.54,0-.81a.29.29,0,0,1,.14-.27.92.92,0,0,0,.39-1A1,1,0,0,0,3.54,9.5Z"/><path class="cls-1" d="M6.71,10.39c0-.42,0-.85,0-1.27a.48.48,0,0,0-.44-.5c-.08,0-.1,0-.1-.12,0-.41,0-.82,0-1.23a2.29,2.29,0,0,0-.37-1.12,2.85,2.85,0,0,0-1.83-1.3l-.25,0a1.72,1.72,0,0,1-.25,0H3.28a6.18,6.18,0,0,0-.63.11,2.79,2.79,0,0,0-2,2A4.15,4.15,0,0,0,.54,8V8.6l-.15,0A.47.47,0,0,0,0,9.11V11.7c0,.39,0,.79,0,1.18s.08.49.37.61h6a.5.5,0,0,0,.34-.37,1.87,1.87,0,0,0,0-.42Zm-2.79.87a.29.29,0,0,0-.14.27c0,.27,0,.54,0,.81a.44.44,0,0,1-.3.44A.4.4,0,0,1,3,12.66a.53.53,0,0,1-.1-.23c0-.17,0-.35,0-.53h0v-.14a.67.67,0,0,0-.25-.62A.9.9,0,0,1,2.5,10a1,1,0,0,1,1-.49,1,1,0,0,1,.77.75A.92.92,0,0,1,3.92,11.26ZM5,8.62H1.75c-.14,0-.15,0-.15-.14,0-.33,0-.66,0-1a1.68,1.68,0,0,1,.73-1.3,1.74,1.74,0,0,1,2.52.53,1.7,1.7,0,0,1,.24.88c0,.3,0,.59,0,.89C5.1,8.59,5.07,8.62,5,8.62Z"/><path class="cls-1" d="M19.57,7.09H6.71c0,.08,0,.65,0,1.06,0,.08,0,.1.1.12a.48.48,0,0,1,.44.5c0,.12,0,.24,0,.36H19.57Z"/></g></g></svg>