<svg xmlns="http://www.w3.org/2000/svg" viewBox="0 0 19.76 19.74"><title>phone</title><g id="Слой_2" data-name="Слой 2"><g id="Layer_1" data-name="Layer 1"><path d="M4.06,1.4h.22A2,2,0,0,1,5.13,2L6.25,3.13,7.16,4a1,1,0,0,1,.36.7,1,1,0,0,1-.35.73l-.77.76-.09.09L6,6.63a1.4,1.4,0,0,0-.33,1.64,7.37,7.37,0,0,0,.78,1.28,16,16,0,0,0,4.41,4.15l.38.21.17.09a1.4,1.4,0,0,0,1.67-.24l1.25-1.25a.87.87,0,0,1,.66-.3.82.82,0,0,1,.61.27c.84.83,1.66,1.64,2.48,2.48a.81.81,0,0,1,0,1.25c-.47.5-1,1-1.62,1.63a1.86,1.86,0,0,1-1.3.51H15a7.18,7.18,0,0,1-2.77-.63A18.7,18.7,0,0,1,6,13.42a18.49,18.49,0,0,1-3.7-5.31,9.91,9.91,0,0,1-.81-2.47,4.11,4.11,0,0,1,0-1.55,1.66,1.66,0,0,1,.48-.83l.64-.64L3.4,1.8A1.16,1.16,0,0,1,4,1.41h0M3.89,0,3.76,0h0A2.54,2.54,0,0,0,2.41.82l-.81.81L1,2.27A3.06,3.06,0,0,0,.1,3.8a5.47,5.47,0,0,0,0,2.07A11.24,11.24,0,0,0,1,8.69,19.86,19.86,0,0,0,5,14.4,20.09,20.09,0,0,0,11.72,19a8.53,8.53,0,0,0,3.3.74h.17a3.24,3.24,0,0,0,2.23-.9c.66-.64,1.19-1.18,1.67-1.68a2.2,2.2,0,0,0,0-3.19c-.82-.84-1.66-1.67-2.49-2.5A2.22,2.22,0,0,0,15,10.8h0a2.27,2.27,0,0,0-1.63.71l-1.26,1.26-.19-.1-.29-.16a14.63,14.63,0,0,1-4-3.8,6,6,0,0,1-.64-1h0l.35-.34.88-.86a2.36,2.36,0,0,0,.75-1.74,2.38,2.38,0,0,0-.76-1.65l-.92-.92L6.13,1A3.15,3.15,0,0,0,4.45,0Z"/></g></g></svg>