<svg xmlns="http://www.w3.org/2000/svg" viewBox="0 0 22.33 22.33"><defs><style>.cls-1{opacity:0.5;}</style></defs><title>pint</title><g id="Слой_2" data-name="Слой 2"><g id="Layer_5" data-name="Layer 5"><g class="cls-1"><path d="M11.18,0h4.38a6.7,6.7,0,0,1,2.58.42,6.42,6.42,0,0,1,4,4.53,6,6,0,0,1,.19,1.54q0,4.68,0,9.35a6.52,6.52,0,0,1-6.53,6.49H6.54A6.51,6.51,0,0,1,0,15.87q0-4.69,0-9.39A6.49,6.49,0,0,1,5.17.15,7.29,7.29,0,0,1,6.61,0C8.13,0,9.66,0,11.18,0ZM9.65,16.54a5.54,5.54,0,0,0,6.92-3.86,5.64,5.64,0,1,0-10.87-3,5.53,5.53,0,0,0,3.17,6.52c0-.12,0-.24,0-.35a5.2,5.2,0,0,1,.07-.72c.22-1,.45-2,.68-2.93a1.16,1.16,0,0,0,0-.53,3.38,3.38,0,0,1-.08-.91,1.35,1.35,0,0,1,.7-1.17.77.77,0,0,1,1.11.39,1.11,1.11,0,0,1,0,.75c-.13.48-.28,1-.41,1.43a1,1,0,0,0,0,.86.93.93,0,0,0,1,.41,1.42,1.42,0,0,0,.85-.56,3.86,3.86,0,0,0,.65-2.8,1.86,1.86,0,0,0-1.38-1.62,3,3,0,0,0-.81-.12,2.63,2.63,0,0,0-2.85,2.37,1.74,1.74,0,0,0,.29,1.32.51.51,0,0,1,.11.53,1.74,1.74,0,0,0,0,.22c-.06.28-.2.36-.45.23a1.85,1.85,0,0,1-.5-.39,2.36,2.36,0,0,1-.55-1.54A3.39,3.39,0,0,1,8.93,8,4.07,4.07,0,0,1,11,7.36a3.85,3.85,0,0,1,2.63.71,3,3,0,0,1,1.27,2.08,4.46,4.46,0,0,1-.58,2.9,2.86,2.86,0,0,1-1.57,1.31A2.09,2.09,0,0,1,11,14.24a5.22,5.22,0,0,1-.45-.34c-.12.46-.21.91-.35,1.34S9.83,16.09,9.65,16.54Z"/></g></g></g></svg>