<svg xmlns="http://www.w3.org/2000/svg" viewBox="0 0 18.43 19.18"><defs><style>.cls-1{fill:#010101;}.cls-2{fill:none;stroke:#000;stroke-miterlimit:10;stroke-width:0.7px;}</style></defs><title>profile</title><g id="Слой_2" data-name="Слой 2"><g id="Слой_1-2" data-name="Слой 1"><path class="cls-1" d="M9.22.35A4.81,4.81,0,1,0,14,5.16,4.81,4.81,0,0,0,9.22.35m0,8.87a4.06,4.06,0,1,1,4.06-4.06A4.07,4.07,0,0,1,9.22,9.22"/><path class="cls-2" d="M9.22.35A4.81,4.81,0,1,0,14,5.16,4.81,4.81,0,0,0,9.22.35Zm0,8.87a4.06,4.06,0,1,1,4.06-4.06A4.07,4.07,0,0,1,9.22,9.22Z"/><path class="cls-1" d="M9.22,11.68c-7.27,0-8.87,3.62-8.87,5a2.13,2.13,0,0,0,2.17,2.14h13.4a2.13,2.13,0,0,0,2.17-2.14c0-1.39-1.59-5-8.87-5m6.7,6.4H2.52A1.38,1.38,0,0,1,1.1,16.69c0-1.11,1.49-4.27,8.12-4.27s8.12,3.16,8.12,4.27a1.38,1.38,0,0,1-1.42,1.39"/><path class="cls-2" d="M9.22,11.68c-7.27,0-8.87,3.62-8.87,5a2.13,2.13,0,0,0,2.17,2.14h13.4a2.13,2.13,0,0,0,2.17-2.14C18.08,15.3,16.49,11.68,9.22,11.68Zm6.7,6.4H2.52a1.38,1.38,0,0,1-1.42-1.39c0-1.11,1.49-4.27,8.12-4.27s8.12,3.16,8.12,4.27A1.38,1.38,0,0,1,15.92,18.08Z"/></g></g></svg>