<svg xmlns="http://www.w3.org/2000/svg" viewBox="0 0 15.17 15.17"><title>search</title><g id="Слой_2" data-name="Слой 2"><g id="Layer_1" data-name="Layer 1"><path d="M10.38,9.47,11,10a.18.18,0,0,0,.12,0,1.16,1.16,0,0,1,.93.37l2.82,2.82a1.1,1.1,0,0,1-.45,1.84,1,1,0,0,1-1.07-.24q-1.48-1.46-2.94-2.94a1.08,1.08,0,0,1-.29-.82.28.28,0,0,0-.07-.18c-.17-.19-.36-.37-.54-.55a5.78,5.78,0,0,1-4.83,1.15A5.65,5.65,0,0,1,1.13,9.27a5.83,5.83,0,1,1,9.25.2ZM5.85,1.65A4.17,4.17,0,1,0,10,5.83,4.17,4.17,0,0,0,5.85,1.65Z"/></g></g></svg>