<svg xmlns="http://www.w3.org/2000/svg" viewBox="0 0 68.14 16.89"><defs><style>.cls-1,.cls-4{opacity:0.4;}.cls-2,.cls-3{fill:#010101;}.cls-3,.cls-4{stroke:#010101;}.cls-3{stroke-miterlimit:10;stroke-width:0.3px;}.cls-4{fill:none;stroke-linecap:round;stroke-linejoin:round;}</style></defs><title>social_apps</title><g id="Слой_2" data-name="Слой 2"><g id="Layer_1" data-name="Layer 1"><g class="cls-1"><path class="cls-2" d="M7.55,15.1h0A7.54,7.54,0,0,1,3.7,14L3.62,14l-3.29.86.88-3.21-.06-.09a7.55,7.55,0,1,1,6.4,3.54ZM3.76,13l.43.26a6.58,6.58,0,0,0,3.35.92v0A6.59,6.59,0,1,0,2,11.05l.28.45-.55,2Z"/><path class="cls-2" d="M11.43,9.33c-.21-.11-1.26-.62-1.45-.69s-.34-.11-.48.11-.55.69-.67.83-.25.16-.46.05A5.8,5.8,0,0,1,6.66,8.57,6.4,6.4,0,0,1,5.47,7.1c-.12-.21,0-.33.09-.43s.21-.25.32-.37a1.45,1.45,0,0,0,.21-.35.39.39,0,0,0,0-.37C6,5.46,5.6,4.42,5.42,4s-.35-.36-.48-.36H4.54A.78.78,0,0,0,4,3.89a2.38,2.38,0,0,0-.74,1.77,4.13,4.13,0,0,0,.87,2.2,9.47,9.47,0,0,0,3.63,3.21,12.24,12.24,0,0,0,1.21.45,2.91,2.91,0,0,0,1.34.08,2.19,2.19,0,0,0,1.43-1,1.78,1.78,0,0,0,.12-1c-.05-.09-.19-.14-.41-.25"/><path class="cls-3" d="M64.32,4A.34.34,0,0,0,64,4L55.43,8.32a.24.24,0,0,0,.05.47l2.69.65,1.46,2.28a.31.31,0,0,0,.26.15h0a.31.31,0,0,0,.26-.15l1.05-1.56,1.9.46h.06a.27.27,0,0,0,.27-.23l1-6.06A.34.34,0,0,0,64.32,4Zm-8.47,4.5,7.26-3.68L58.24,9.08Zm3.9,1h0v0h0v1.51L58.52,9.31,63,5.41Zm.33,1.65V9.9l.76.18Zm3-.95-2.89-.7L64,4.69Z"/><path class="cls-2" d="M60.59,15.1a7.55,7.55,0,1,1,7.55-7.55A7.56,7.56,0,0,1,60.59,15.1ZM60.59,1a6.59,6.59,0,1,0,6.59,6.59A6.6,6.6,0,0,0,60.59,1Z"/><path d="M32.94.18h1.79l.08,0,.46,0,.53,0A1.09,1.09,0,0,1,36,.3a2.89,2.89,0,0,0,.34,0l.28,0,.25,0,.32.07.3.07.37.09.59.2.47.2.42.21c.15.08.29.18.43.27a3.08,3.08,0,0,1,.35.28c.14.13.27.28.4.42a1.56,1.56,0,0,1,.12.16l.16.24c0,.07.09.14.13.22l.27.55a2.23,2.23,0,0,1,.09.21c0,.1.06.2.1.3l.08.27.06.21c0,.1.06.2.08.31s0,.19.05.28,0,.19.06.29,0,.18,0,.27,0,.29.06.43,0,.17,0,.26,0,.44,0,.66,0,.19,0,.29a.25.25,0,0,0,0,.07v.26a.26.26,0,0,0,0,.07,7.42,7.42,0,0,1,0,.76c0,.13,0,.27,0,.4s0,.17,0,.25,0,.19,0,.29a1.51,1.51,0,0,1,0,.39,1.44,1.44,0,0,0,0,.27l0,.2s0,.09,0,.13l0,.2,0,.16-.05.21c0,.07,0,.14-.05.21s-.06.16-.09.24-.11.33-.18.49-.14.28-.22.41a4.21,4.21,0,0,1-.47.69c-.1.13-.23.23-.34.35a3.07,3.07,0,0,1-.53.43c-.13.08-.26.17-.39.24l-.58.27-.27.1-.15,0-.39.11-.12,0-.26.08-.25,0-.12,0-.17,0-.18,0-.19,0-.2,0-.18,0-.25,0-.39,0-.26,0c-.11,0-.23,0-.34,0a3.46,3.46,0,0,1-.48,0,7.44,7.44,0,0,1-1,0c-.2,0-.4,0-.59,0l-.19,0a.08.08,0,0,0-.06,0l-.18.22-.31.34-.45.5-.13.13-.27.31-.22.23a.89.89,0,0,1-.34.23l-.07,0h-.3l0,0a.42.42,0,0,1-.23-.15,1.09,1.09,0,0,1-.12-.23.78.78,0,0,1-.06-.25c0-.46,0-.93,0-1.39,0-.14,0-.28,0-.42a.07.07,0,0,0,0-.08l-.37-.12L29,14l-.31-.16a3.46,3.46,0,0,1-.61-.41,4.31,4.31,0,0,1-.49-.46,5.69,5.69,0,0,1-.41-.51,3.41,3.41,0,0,1-.25-.4c-.12-.23-.22-.47-.33-.7a2.92,2.92,0,0,1-.1-.27c0-.09-.05-.17-.07-.26l-.11-.42,0-.11,0-.17,0-.2c0-.08,0-.16,0-.23s0-.14,0-.21,0-.18,0-.27,0-.16,0-.24,0-.27,0-.4,0-.38,0-.56A.15.15,0,0,0,26,8q0-.22,0-.43a.21.21,0,0,0,0-.06c0-.32,0-.64,0-1a3.21,3.21,0,0,1,0-.39,1.66,1.66,0,0,0,0-.26c0-.08,0-.16,0-.23a1.38,1.38,0,0,1,0-.36,1.75,1.75,0,0,0,0-.29c0-.1,0-.2.05-.3s.05-.23.08-.34,0-.14.05-.2.06-.16.09-.24.11-.32.17-.48.15-.31.23-.46a3.29,3.29,0,0,1,.4-.62l.34-.4a2.56,2.56,0,0,1,.23-.21l.22-.17.24-.16c.14-.08.28-.17.43-.25L29.3.92l.25-.1.32-.11.22-.08.25-.06L30.68.5,31,.41l.25,0,.28,0,.34,0a2.91,2.91,0,0,1,.41,0l.5,0h.07ZM30.29,14.79c0,.47,0,.95,0,1.42a.26.26,0,0,0,0,.1s.11.1.14.08a.47.47,0,0,0,.22-.12l.21-.22.22-.25.1-.11.34-.4.22-.25.3-.36.25-.3.35-.42.22-.26,0,0h.7a12.17,12.17,0,0,0,1.37,0l.27,0,.22,0,.39,0,.25,0h0l.33-.07.29,0,.14,0,.21-.06.21-.05.15,0,.21,0,.34-.11.47-.2a2.33,2.33,0,0,0,.52-.32c.11-.09.22-.17.32-.26a2.46,2.46,0,0,0,.21-.23,2.78,2.78,0,0,0,.2-.25c.11-.17.23-.34.32-.51a5,5,0,0,0,.21-.49c0-.1.07-.2.11-.3s0-.14.05-.2l.05-.23c0-.09,0-.18.06-.28s0-.21,0-.31,0-.29,0-.43,0-.28,0-.42h0c0-.15,0-.3,0-.45a2.53,2.53,0,0,0,0-.47c0-.27,0-.54,0-.81a2,2,0,0,0,0-.5,1.19,1.19,0,0,1,0-.23c0-.1,0-.2,0-.29s0-.17,0-.25,0-.22-.07-.33,0-.19,0-.29a1.06,1.06,0,0,0,0-.1l-.07-.23c0-.07,0-.15-.06-.22s-.09-.28-.15-.42A4.3,4.3,0,0,0,40,3.64a4.38,4.38,0,0,0-.26-.43,4.14,4.14,0,0,0-.29-.38c-.07-.07-.15-.13-.22-.2a2.17,2.17,0,0,0-.5-.34A5,5,0,0,0,38.23,2l-.45-.17-.44-.14-.09,0-.15,0-.2,0-.27-.07-.31-.05-.37-.06-.37,0-.26,0-.29,0-.59,0c-.34,0-.69,0-1,0a2.39,2.39,0,0,0-.46,0,3,3,0,0,1-.4,0l-.21,0-.27,0-.23,0-.35.07-.14,0-.16,0-.25.07-.26.06-.09,0-.21.06-.27.1L29.72,2l-.33.16c-.12.07-.25.14-.36.22a3.9,3.9,0,0,0-.39.3,2.92,2.92,0,0,0-.5.59c-.07.11-.15.23-.22.35a4.56,4.56,0,0,0-.3.67c0,.1-.07.19-.1.29s-.06.27-.1.41l0,.11c0,.06,0,.12,0,.18s0,.13,0,.2l0,.15c0,.08,0,.16,0,.24s0,.25,0,.37v0c0,.17,0,.34,0,.51s0,.56,0,.83,0,.57,0,.86c0,.1,0,.2,0,.3s0,.2,0,.29,0,.2,0,.29v0l0,.26c0,.07,0,.13,0,.2s0,.18.07.27,0,.22.07.32a4.33,4.33,0,0,0,.15.43c.08.2.17.4.27.59a3.91,3.91,0,0,0,.25.38,2,2,0,0,0,.2.26,3.61,3.61,0,0,0,.63.57c.12.08.24.16.37.23a3,3,0,0,0,.58.26l.32.1a.09.09,0,0,1,.07.09C30.28,13.83,30.29,14.31,30.29,14.79Z"/><path d="M35.7,8.91l.05,0a.68.68,0,0,1,.36.13l.64.43c.16.11.31.24.46.36a3.14,3.14,0,0,1,.31.27.71.71,0,0,1,.1.21.23.23,0,0,1,0,.09.85.85,0,0,1-.15.45,2.16,2.16,0,0,1-.3.39c-.08.07-.14.16-.22.23a1.5,1.5,0,0,1-.43.27.68.68,0,0,1-.3.06.65.65,0,0,1-.25,0,3.46,3.46,0,0,0-.33-.11l-.21-.09-.4-.19-.63-.32L34,10.79l-.63-.4L33,10.16l-.45-.35,0,0-.26-.24-.19-.19L31.82,9l-.25-.31-.19-.24-.19-.27L31,7.9l-.21-.35-.26-.48-.41-.81C30,6.12,30,6,29.89,5.83a1.89,1.89,0,0,1-.11-.32.75.75,0,0,1,0-.34,1.36,1.36,0,0,1,.12-.33,1.26,1.26,0,0,1,.14-.2,2.4,2.4,0,0,1,.25-.27c.12-.11.25-.2.38-.29l.22-.13a.78.78,0,0,1,.15,0l.09,0a.57.57,0,0,1,.45.25l.12.16c.14.18.29.35.42.53s.23.35.34.53l.11.19a.64.64,0,0,1,.06.42.57.57,0,0,1-.25.39,3.5,3.5,0,0,0-.37.33.35.35,0,0,0-.1.23.76.76,0,0,0,.08.4c.09.19.16.38.26.56s.23.34.34.51a3.57,3.57,0,0,0,.54.58,2.23,2.23,0,0,0,.37.27,4.49,4.49,0,0,0,.47.26c.12.06.25.08.37.14a.63.63,0,0,0,.3,0,.37.37,0,0,0,.25-.11c.08-.08.14-.17.21-.25A2.48,2.48,0,0,1,35.36,9a.61.61,0,0,1,.21-.08l.12,0Z"/><path d="M37.52,7.56c0-.05,0-.1,0-.15s0-.19,0-.28,0-.21,0-.31,0-.17-.06-.25,0-.13,0-.19a2.71,2.71,0,0,0-.09-.28A4.87,4.87,0,0,0,37,5.64a3.16,3.16,0,0,0-.27-.41,3.72,3.72,0,0,0-.35-.4,3,3,0,0,0-.57-.45l-.47-.26A2.93,2.93,0,0,0,35,4l-.29-.09-.17,0-.2,0h0l-.54,0a.21.21,0,0,1-.22-.22.2.2,0,0,1,.18-.18h.31l.3,0,.2,0,.24,0,.37.1a3.18,3.18,0,0,1,.59.26,5.82,5.82,0,0,1,.58.37,3.81,3.81,0,0,1,.42.4c.11.12.22.25.32.38a3.12,3.12,0,0,1,.4.68,4.17,4.17,0,0,1,.17.47c0,.13.07.25.11.38s0,.12,0,.18l0,.19a.56.56,0,0,1,0,.07c0,.13,0,.26,0,.4s0,.17,0,.26a.22.22,0,0,1-.16.25.2.2,0,0,1-.19-.08.57.57,0,0,1,0-.15.73.73,0,0,1,0-.12Z"/><path d="M36.49,7.15c0-.14,0-.27-.06-.41a2.5,2.5,0,0,0-.09-.38,2,2,0,0,0-.21-.43,2.2,2.2,0,0,0-.37-.45,1.68,1.68,0,0,0-.43-.31c-.1,0-.2-.1-.31-.14l-.35-.1-.3-.07h-.12A.27.27,0,0,1,34,4.77.21.21,0,0,1,34,4.63c0-.09.07-.17.18-.17l.35,0a1.93,1.93,0,0,1,.31.06,3.81,3.81,0,0,1,.44.16,4.1,4.1,0,0,1,.45.23,2.2,2.2,0,0,1,.25.2,1.1,1.1,0,0,1,.14.12l.26.33a1.81,1.81,0,0,1,.24.41,3.19,3.19,0,0,1,.13.32,3.79,3.79,0,0,1,.1.43,2.88,2.88,0,0,1,0,.56.21.21,0,0,1-.2.2.22.22,0,0,1-.2-.19c0-.05,0-.11,0-.16Z"/><path d="M35.46,6.91c0-.09,0-.17-.06-.26A.83.83,0,0,0,35,6.08a1,1,0,0,0-.39-.13l-.2,0a.21.21,0,0,1-.16-.19.19.19,0,0,1,.13-.2.64.64,0,0,1,.17,0h.06l.18,0a3,3,0,0,1,.36.13,1.07,1.07,0,0,1,.39.33,1.8,1.8,0,0,1,.18.35,1.09,1.09,0,0,1,.09.41c0,.06,0,.11,0,.17a.21.21,0,0,1-.17.18C35.52,7.15,35.45,7.08,35.46,6.91Z"/></g><line class="cls-4" x1="18.11" y1="7.63" x2="22.94" y2="7.63"/><line class="cls-4" x1="44.79" y1="7.68" x2="49.62" y2="7.68"/></g></g></svg>