<svg xmlns="http://www.w3.org/2000/svg" viewBox="0 0 22.33 22.32"><defs><style>.cls-1{opacity:0.5;}.cls-2{fill:#fff;stroke:#fff;stroke-miterlimit:10;stroke-width:0.3px;}</style></defs><title>telegram</title><g id="Слой_2" data-name="Слой 2"><g id="Layer_5" data-name="Layer 5"><g class="cls-1"><path d="M22.33,11.16c0,1.51,0,3,0,4.53a6.5,6.5,0,0,1-5.08,6.46,7.24,7.24,0,0,1-1.64.17h-9a6.41,6.41,0,0,1-4.66-1.89A6.27,6.27,0,0,1,.08,16.6,9.84,9.84,0,0,1,0,15.46c0-3,0-6,0-9A6.48,6.48,0,0,1,5.2.14,6.86,6.86,0,0,1,6.58,0h9.16a6.4,6.4,0,0,1,4.16,1.44A6.21,6.21,0,0,1,22.2,5.27a8.42,8.42,0,0,1,.12,1.39C22.34,8.15,22.33,9.65,22.33,11.16Z"/><path class="cls-2" d="M18.18,4.89a.57.57,0,0,0-.61,0L3.09,12.21a.41.41,0,0,0,.09.8l4.57,1.1L10.23,18a.53.53,0,0,0,.44.26h0a.53.53,0,0,0,.44-.25l1.78-2.65,3.22.78h.11a.46.46,0,0,0,.45-.39l1.7-10.3A.57.57,0,0,0,18.18,4.89ZM3.8,12.54,16.13,6.29,7.86,13.52Zm6.62,1.78h0v0h0v0h0v0h0v2.57l-2-3.17,7.6-6.64Zm.55,2.8V14.89l1.3.31Zm5.13-1.61-4.92-1.19L17.67,6Z"/></g></g></g></svg>