<svg xmlns="http://www.w3.org/2000/svg" viewBox="0 0 22.33 22.32"><defs><style>.cls-1{opacity:0.5;}.cls-2{fill:#fff;}</style></defs><title>tweeter</title><g id="Слой_2" data-name="Слой 2"><g id="Layer_5" data-name="Layer 5"><g class="cls-1"><path d="M22.33,11.16c0,1.51,0,3,0,4.53a6.5,6.5,0,0,1-5.08,6.46,7.24,7.24,0,0,1-1.64.17h-9a6.41,6.41,0,0,1-4.66-1.89A6.27,6.27,0,0,1,.08,16.6,9.84,9.84,0,0,1,0,15.46c0-3,0-6,0-9A6.48,6.48,0,0,1,5.2.14,6.86,6.86,0,0,1,6.58,0h9.16a6.4,6.4,0,0,1,4.16,1.44A6.21,6.21,0,0,1,22.2,5.27a8.42,8.42,0,0,1,.12,1.39C22.34,8.15,22.33,9.65,22.33,11.16Z"/><path class="cls-2" d="M5,15.32a5.53,5.53,0,0,0,4-1.13,2.88,2.88,0,0,1-1.56-.56,2.75,2.75,0,0,1-1-1.35c.21,0,.41,0,.61,0a2.21,2.21,0,0,0,.61-.09A2.77,2.77,0,0,1,5.89,10.9a2.7,2.7,0,0,1-.38-1.43,2.69,2.69,0,0,0,1.2.33A2.78,2.78,0,0,1,5.53,7.52,2.64,2.64,0,0,1,5.9,6.14,7.89,7.89,0,0,0,11.58,9l0-.25a2.75,2.75,0,0,1,2.21-3.09,2.68,2.68,0,0,1,2.45.74.19.19,0,0,0,.2.06,5.64,5.64,0,0,0,1.52-.58L18,5.84a2.67,2.67,0,0,1-.45.86,3.1,3.1,0,0,1-.71.65,5.3,5.3,0,0,0,1.51-.41.24.24,0,0,1-.06.11,5.49,5.49,0,0,1-1.22,1.25.17.17,0,0,0-.08.16,8.06,8.06,0,0,1-3.21,6.63,7.39,7.39,0,0,1-2.92,1.29,8.26,8.26,0,0,1-2.13.16,7.74,7.74,0,0,1-3.73-1.17Z"/></g></g></g></svg>