<svg xmlns="http://www.w3.org/2000/svg" viewBox="0 0 22.35 22.34"><defs><style>.cls-1{opacity:0.5;}.cls-2{fill:#fff;}</style></defs><title>vk</title><g id="Слой_2" data-name="Слой 2"><g id="Layer_5" data-name="Layer 5"><g class="cls-1"><path d="M11.16,22.34H6.53A6.54,6.54,0,0,1,.17,17.28,6.28,6.28,0,0,1,0,15.93c0-3.18,0-6.36,0-9.54a6.47,6.47,0,0,1,4.18-6A6.6,6.6,0,0,1,6.58,0h9.16a6.41,6.41,0,0,1,4.14,1.42,6.21,6.21,0,0,1,2.33,3.87,9.3,9.3,0,0,1,.13,1.54q0,4.47,0,8.94a6.39,6.39,0,0,1-2.19,4.91,6.21,6.21,0,0,1-3.49,1.59,9.54,9.54,0,0,1-1.07.07Z"/><path class="cls-2" d="M12.11,9.1c0,.41,0,.73,0,1a2.37,2.37,0,0,0,.07.68.61.61,0,0,0,.14.26.21.21,0,0,0,.28.06,1.12,1.12,0,0,0,.34-.26,5.81,5.81,0,0,0,.59-.75,11.87,11.87,0,0,0,1.21-2.39.58.58,0,0,1,.21-.27.32.32,0,0,1,.22,0H17.4c.11,0,.22,0,.33,0a1.31,1.31,0,0,1,.31.06.26.26,0,0,1,.19.27,1.17,1.17,0,0,1-.1.45,5,5,0,0,1-.58,1c-.39.54-.78,1.07-1.18,1.61l-.44.62a.82.82,0,0,0-.14.35.56.56,0,0,0,.18.47c.2.22.42.43.63.63a11.92,11.92,0,0,1,1.12,1.17,3.67,3.67,0,0,1,.47.71.8.8,0,0,1,.07.24.39.39,0,0,1-.19.39.88.88,0,0,1-.46.14c-.64,0-1.29,0-1.93.05a1.64,1.64,0,0,1-1.2-.46,6.93,6.93,0,0,1-.71-.75,4.75,4.75,0,0,0-.62-.64l-.19-.12a.39.39,0,0,0-.48.08,1,1,0,0,0-.25.46,3.13,3.13,0,0,0-.11.79,1.25,1.25,0,0,1,0,.16.46.46,0,0,1-.33.38.86.86,0,0,1-.3.05H10.6a4.21,4.21,0,0,1-1.47-.28,5.72,5.72,0,0,1-2.26-1.56,13.4,13.4,0,0,1-1.36-1.8A29.72,29.72,0,0,1,3.38,8a.53.53,0,0,1,0-.29.19.19,0,0,1,.11-.15.73.73,0,0,1,.33-.08H5.93a.61.61,0,0,1,.57.42,12.82,12.82,0,0,0,.67,1.42,11.86,11.86,0,0,0,1,1.55,1.69,1.69,0,0,0,.39.38.39.39,0,0,0,.25.08.33.33,0,0,0,.28-.21,1.64,1.64,0,0,0,.14-.5,7.37,7.37,0,0,0,0-1.39c0-.24,0-.49-.06-.73a2.89,2.89,0,0,0-.09-.38.41.41,0,0,0-.21-.24,1.09,1.09,0,0,0-.49-.16s-.07,0,0-.07a.44.44,0,0,1,.06-.11A1,1,0,0,1,9,7.15a5.67,5.67,0,0,1,1.09-.08c.31,0,.62,0,.93,0a3.84,3.84,0,0,1,.62.09.56.56,0,0,1,.46.53,6.38,6.38,0,0,1,0,.69C12.14,8.66,12.12,8.92,12.11,9.1Z"/></g></g></g></svg>