<svg xmlns="http://www.w3.org/2000/svg" viewBox="0 0 22.35 22.34"><defs><style>.cls-1{opacity:0.5;}.cls-2{fill:#fff;}</style></defs><title>youtube</title><g id="Слой_2" data-name="Слой 2"><g id="Layer_5" data-name="Layer 5"><g class="cls-1"><path d="M11.16,22.34H6.53A6.54,6.54,0,0,1,.17,17.28,6.28,6.28,0,0,1,0,15.93c0-3.18,0-6.36,0-9.54a6.47,6.47,0,0,1,4.18-6A6.6,6.6,0,0,1,6.58,0h9.16a6.41,6.41,0,0,1,4.14,1.42,6.21,6.21,0,0,1,2.33,3.87,9.3,9.3,0,0,1,.13,1.54q0,4.47,0,8.94a6.39,6.39,0,0,1-2.19,4.91,6.21,6.21,0,0,1-3.49,1.59,9.54,9.54,0,0,1-1.07.07Zm0-12.21-4.36.17a1.35,1.35,0,0,0-1.27,1.13c-.06.65-.14,1.3-.19,2a14.39,14.39,0,0,0,.2,3.35,1.31,1.31,0,0,0,1.19,1.05c.78,0,1.56.09,2.34.11q3.25.1,6.49-.11a1.31,1.31,0,0,0,1.21-1.07c.09-.63.15-1.26.2-1.89a16,16,0,0,0-.18-3.38,1.39,1.39,0,0,0-1.3-1.14ZM9,9.46c0-.14,0-.24,0-.34,0-.49,0-1,0-1.46a1.64,1.64,0,0,1,.06-.43c.24-.8.48-1.6.72-2.39,0-.12.06-.24.09-.37H9.23c-.2.63-.31,1.28-.52,1.9H8.63L8.1,4.47H7.4l.1.32.64,1.92A3.55,3.55,0,0,1,8.33,8c0,.41,0,.82,0,1.24,0,.08,0,.16,0,.25ZM10,7.6h0c0,.35,0,.7,0,1a.92.92,0,0,0,.93.89.88.88,0,0,0,1-.83c0-.51,0-1,.05-1.55a4.07,4.07,0,0,0-.06-.69.81.81,0,0,0-.63-.71.94.94,0,0,0-1.26.9C10,7,10,7.28,10,7.6Zm2.6-1.83c0,1.08,0,2.12,0,3.17,0,.21,0,.43.24.55a.63.63,0,0,0,.65-.1c.06,0,.11-.09.17-.14l.19-.12.05.31h.57V5.77h-.6V6.1q0,1.12,0,2.25a1.68,1.68,0,0,1,0,.22.53.53,0,0,1-.47.4c-.15,0-.2-.13-.21-.4,0-.05,0-.11,0-.16q0-1.14,0-2.28V5.77Z"/><path d="M12.15,16.29l-.06.22h-.71v-5.1a1.4,1.4,0,0,1,.73,0v1.54l.29-.2a.63.63,0,0,1,1,.45,2.2,2.2,0,0,1,0,.41q0,1,0,2a2.27,2.27,0,0,1,0,.38.63.63,0,0,1-1,.46Z"/><path d="M9.55,12.65v2.72a1.22,1.22,0,0,0,0,.16c0,.13-.06.3.13.34s.36-.16.39-.32a1.33,1.33,0,0,0,0-.25q0-1.12,0-2.25v-.39c.23,0,.42,0,.62,0s.11.08.14.14a.35.35,0,0,1,0,.16q0,1.65,0,3.29c0,.07,0,.14,0,.23a1.89,1.89,0,0,1-.71,0L10,16.23a2.78,2.78,0,0,1-.24.17,1.63,1.63,0,0,1-.34.16.49.49,0,0,1-.64-.36,1.57,1.57,0,0,1,0-.41q0-1.43,0-2.85c0-.29,0-.3.31-.3Z"/><path d="M16.06,14.75H14.71a2.66,2.66,0,0,0,0,.93.25.25,0,0,0,.29.2.23.23,0,0,0,.24-.21c0-.16,0-.33.07-.52H16a1.22,1.22,0,0,1-.3,1.15,1,1,0,0,1-1.12.21,1,1,0,0,1-.66-.85,8.55,8.55,0,0,1,0-1,10.32,10.32,0,0,1,0-1.17,1,1,0,0,1,1.47-.82,1,1,0,0,1,.58.71A6,6,0,0,1,16.06,14.75Z"/><path d="M6.3,12.13v-.72a14.64,14.64,0,0,1,2.42,0,1.88,1.88,0,0,1,0,.74H8c0,.39,0,.75,0,1.1s0,.72,0,1.08v2.16a2.12,2.12,0,0,1-.83,0c0-.72,0-1.43,0-2.15s0-1.43,0-2.19Z"/><path d="M10.64,7.62c0-.28,0-.57,0-.85a1,1,0,0,1,.06-.31A.31.31,0,0,1,11,6.25a.32.32,0,0,1,.31.23,1,1,0,0,1,.06.34q0,.81,0,1.61a1.11,1.11,0,0,1-.06.34.32.32,0,0,1-.59,0,1.09,1.09,0,0,1-.07-.34C10.63,8.17,10.64,7.9,10.64,7.62Z"/><path class="cls-2" d="M12.13,14.6c0-.33,0-.65,0-1a.28.28,0,0,1,.28-.31c.14,0,.22.07.26.26a.75.75,0,0,1,0,.16q0,.87,0,1.74a1.07,1.07,0,0,1,0,.22.23.23,0,0,1-.28.2.25.25,0,0,1-.25-.26C12.12,15.27,12.13,14.93,12.13,14.6Z"/><path class="cls-2" d="M15.31,14.1h-.6a1.06,1.06,0,0,1,0-.57.26.26,0,0,1,.26-.22.24.24,0,0,1,.27.21C15.28,13.7,15.29,13.89,15.31,14.1Z"/></g></g></g></svg>